<?xml version="1.0" encoding="UTF-8" standalone="no"?>
<svg
   xmlns:dc="http://purl.org/dc/elements/1.1/"
   xmlns:cc="http://creativecommons.org/ns#"
   xmlns:rdf="http://www.w3.org/1999/02/22-rdf-syntax-ns#"
   xmlns:svg="http://www.w3.org/2000/svg"
   xmlns="http://www.w3.org/2000/svg"
   xmlns:sodipodi="http://sodipodi.sourceforge.net/DTD/sodipodi-0.dtd"
   xmlns:inkscape="http://www.inkscape.org/namespaces/inkscape"
   width="24"
   height="24"
   viewBox="0 0 24 24"
   version="1.1"
   id="svg187"
   sodipodi:docname="alert.svg"
   inkscape:version="0.92.5 (2060ec1f9f, 2020-04-08)">
  <metadata
     id="metadata193">
    <rdf:RDF>
      <cc:Work
         rdf:about="">
        <dc:format>image/svg+xml</dc:format>
        <dc:type
           rdf:resource="http://purl.org/dc/dcmitype/StillImage" />
      </cc:Work>
    </rdf:RDF>
  </metadata>
  <defs
     id="defs191" />
  <sodipodi:namedview
     pagecolor="#ffffff"
     bordercolor="#666666"
     borderopacity="1"
     objecttolerance="10"
     gridtolerance="10"
     guidetolerance="10"
     inkscape:pageopacity="0"
     inkscape:pageshadow="2"
     inkscape:window-width="640"
     inkscape:window-height="480"
     id="namedview189"
     showgrid="false"
     inkscape:zoom="9.8333333"
     inkscape:cx="12"
     inkscape:cy="12"
     inkscape:window-x="0"
     inkscape:window-y="0"
     inkscape:window-maximized="0"
     inkscape:current-layer="svg187" />
  <path
     d="M19 13.586V10c0-3.217-2.185-5.927-5.145-6.742C13.562 2.52 12.846 2 12 2s-1.562.52-1.855 1.258C7.185 4.074 5 6.783 5 10v3.586l-1.707 1.707C3.105 15.48 3 15.734 3 16v2c0 .553.447 1 1 1h16c.553 0 1-.447 1-1v-2c0-.266-.105-.52-.293-.707L19 13.586zM19 17H5v-.586l1.707-1.707C6.895 14.52 7 14.266 7 14v-4c0-2.757 2.243-5 5-5s5 2.243 5 5v4c0 .266.105.52.293.707L19 16.414V17zM12 22c1.311 0 2.407-.834 2.818-2H9.182C9.593 21.166 10.689 22 12 22z"
     id="path185" />
  <path
     style="fill:#ffffff;stroke-width:0.10169491"
     d="M 3.4044127,18.692655 3.0915254,18.429377 V 17.000444 15.57151 l 0.9567397,-0.977281 0.9567396,-0.97728 0.047977,-2.38983 C 5.0895695,9.4046052 5.1416552,8.6953052 5.2723932,8.2391829 5.8767248,6.1307755 7.4810168,4.3383768 9.4683494,3.5512416 10.000583,3.3404364 10.22269,3.1870298 10.435155,2.8834798 c 0.781829,-1.1170056 2.54864,-1.0526343 3.220102,0.1173198 0.111164,0.193694 0.342658,0.3505066 0.723592,0.4901589 1.409449,0.5167103 2.8369,1.697495 3.58816,2.9681185 0.211177,0.3571687 0.505647,1.0154993 0.654376,1.4629569 0.256323,0.7711539 0.27253,0.9407757 0.31091,3.2542371 l 0.04049,2.440678 0.948675,0.968122 c 1.088899,1.111217 1.106763,1.157785 1.05273,2.744077 -0.03477,1.020768 -0.03934,1.037316 -0.367322,1.330205 l -0.332112,0.296579 H 11.996029 3.7173001 Z M 19.057627,16.69504 c 0,-0.279945 -0.147042,-0.47625 -0.991525,-1.323715 L 17.074576,14.3763 17.019218,11.606794 C 16.969177,9.1033195 16.943271,8.7860531 16.749525,8.303909 16.398453,7.4302576 16.050867,6.9169622 15.406113,6.3200329 14.660574,5.6297962 13.953709,5.2723116 12.915967,5.0606858 10.314731,4.5302181 7.618172,6.33267 7.0683136,8.9694123 7.0051458,9.2723216 6.9559322,10.532614 6.9559322,11.847344 c 0,1.830615 -0.031562,2.398717 -0.1452078,2.613638 -0.079864,0.151037 -0.5374914,0.662584 -1.0169492,1.136773 -0.6775328,0.670087 -0.8717413,0.924965 -0.8717413,1.144067 v 0.281907 h 7.0677971 7.067796 z"
     id="path195"
     inkscape:connector-curvature="0" />
  <path
     style="fill:#ffffff;stroke-width:0.10169491"
     d="m 10.769492,21.662308 c -0.591569,-0.28014 -1.4745767,-1.18356 -1.4745767,-1.508665 0,-0.04349 1.2127117,-0.07907 2.6949157,-0.07907 1.482203,0 2.694915,0.02515 2.694915,0.0559 0,0.369984 -0.87994,1.271843 -1.525424,1.563423 -0.6642,0.300035 -1.718986,0.286092 -2.38983,-0.03159 z"
     id="path197"
     inkscape:connector-curvature="0" />
</svg>
