<?xml version="1.0" encoding="UTF-8" standalone="no"?>
<svg
   xmlns:dc="http://purl.org/dc/elements/1.1/"
   xmlns:cc="http://creativecommons.org/ns#"
   xmlns:rdf="http://www.w3.org/1999/02/22-rdf-syntax-ns#"
   xmlns:svg="http://www.w3.org/2000/svg"
   xmlns="http://www.w3.org/2000/svg"
   xmlns:sodipodi="http://sodipodi.sourceforge.net/DTD/sodipodi-0.dtd"
   xmlns:inkscape="http://www.inkscape.org/namespaces/inkscape"
   width="24"
   height="24"
   viewBox="0 0 24 24"
   version="1.1"
   id="svg249"
   sodipodi:docname="receive_order.svg"
   inkscape:version="0.92.5 (2060ec1f9f, 2020-04-08)">
  <metadata
     id="metadata255">
    <rdf:RDF>
      <cc:Work
         rdf:about="">
        <dc:format>image/svg+xml</dc:format>
        <dc:type
           rdf:resource="http://purl.org/dc/dcmitype/StillImage" />
      </cc:Work>
    </rdf:RDF>
  </metadata>
  <defs
     id="defs253" />
  <sodipodi:namedview
     pagecolor="#ffffff"
     bordercolor="#666666"
     borderopacity="1"
     objecttolerance="10"
     gridtolerance="10"
     guidetolerance="10"
     inkscape:pageopacity="0"
     inkscape:pageshadow="2"
     inkscape:window-width="640"
     inkscape:window-height="480"
     id="namedview251"
     showgrid="false"
     inkscape:zoom="9.8333333"
     inkscape:cx="12"
     inkscape:cy="12"
     inkscape:window-x="0"
     inkscape:window-y="0"
     inkscape:window-maximized="0"
     inkscape:current-layer="svg249" />
  <path
     d="M4 7H15V9H4zM4 11H15V13H4zM4 15H11V17H4zM19.299 12.292L14.999 16.583 13.707 15.292 12.293 16.707 14.999 19.411 20.711 13.708z"
     id="path247" />
  <path
     style="fill:#ffffff;stroke-width:0.10169491"
     d="m 4.0067797,16.00678 v -0.915255 h 3.4576271 3.4576272 v 0.915255 0.915254 H 7.4644068 4.0067797 Z"
     id="path257"
     inkscape:connector-curvature="0" />
  <path
     style="fill:#ffffff;stroke-width:0.10169491"
     d="m 4.0067797,11.989831 v -0.966102 h 5.4915254 5.4915259 v 0.966102 0.966101 H 9.4983051 4.0067797 Z"
     id="path259"
     inkscape:connector-curvature="0" />
  <path
     style="fill:#ffffff;stroke-width:0.10169491"
     d="M 4.0067797,8.0237288 V 7.0576271 H 9.4983051 14.989831 V 8.0237288 8.9898305 H 9.4983051 4.0067797 Z"
     id="path261"
     inkscape:connector-curvature="0" />
  <path
     style="fill:#ffffff;stroke-width:0.10169491"
     d="m 13.668505,17.99054 -1.267426,-1.270476 0.655944,-0.661828 0.655945,-0.661827 0.639462,0.633777 0.639461,0.633778 2.161894,-2.16014 2.161894,-2.16014 0.65729,0.663184 0.657289,0.663184 -2.794097,2.795482 c -1.536753,1.537516 -2.817976,2.795483 -2.847163,2.795483 -0.02919,0 -0.623409,-0.571715 -1.320493,-1.270477 z"
     id="path263"
     inkscape:connector-curvature="0" />
</svg>
