<?xml version="1.0" encoding="UTF-8" standalone="no"?>
<svg
   xmlns:dc="http://purl.org/dc/elements/1.1/"
   xmlns:cc="http://creativecommons.org/ns#"
   xmlns:rdf="http://www.w3.org/1999/02/22-rdf-syntax-ns#"
   xmlns:svg="http://www.w3.org/2000/svg"
   xmlns="http://www.w3.org/2000/svg"
   xmlns:sodipodi="http://sodipodi.sourceforge.net/DTD/sodipodi-0.dtd"
   xmlns:inkscape="http://www.inkscape.org/namespaces/inkscape"
   width="24"
   height="24"
   viewBox="0 0 24 24"
   version="1.1"
   id="svg71"
   sodipodi:docname="sell.svg"
   inkscape:version="0.92.5 (2060ec1f9f, 2020-04-08)">
  <metadata
     id="metadata77">
    <rdf:RDF>
      <cc:Work
         rdf:about="">
        <dc:format>image/svg+xml</dc:format>
        <dc:type
           rdf:resource="http://purl.org/dc/dcmitype/StillImage" />
      </cc:Work>
    </rdf:RDF>
  </metadata>
  <defs
     id="defs75" />
  <sodipodi:namedview
     pagecolor="#ffffff"
     bordercolor="#666666"
     borderopacity="1"
     objecttolerance="10"
     gridtolerance="10"
     guidetolerance="10"
     inkscape:pageopacity="0"
     inkscape:pageshadow="2"
     inkscape:window-width="1920"
     inkscape:window-height="1029"
     id="namedview73"
     showgrid="false"
     inkscape:zoom="33.375"
     inkscape:cx="12"
     inkscape:cy="12"
     inkscape:window-x="1080"
     inkscape:window-y="376"
     inkscape:window-maximized="1"
     inkscape:current-layer="svg71" />
  <path
     fill="none"
     d="M10.025,9C9.474,9,9.003,8.552,9.003,8V6.414L4.417,11l4.586,4.586V14c0-0.501,0.371-0.925,0.868-0.991 c0.663-0.088,1.327-0.133,1.975-0.133c3.577,0,6.204,1.331,7.858,2.55C18.14,9.201,10.936,9,10.025,9z"
     id="path67" />
  <path
     d="M11.003,7.054V4c0-0.404-0.243-0.769-0.617-0.924c-0.373-0.154-0.804-0.069-1.09,0.217l-7,7 c-0.391,0.391-0.391,1.023,0,1.414l7,7c0.287,0.287,0.717,0.372,1.09,0.217c0.374-0.155,0.617-0.52,0.617-0.924v-3.096 c0.284-0.02,0.565-0.029,0.843-0.029c5.426,0,8.239,3.572,8.362,3.73C20.4,18.859,20.697,19,21.003,19 c0.106,0,0.214-0.017,0.318-0.052c0.407-0.137,0.682-0.518,0.682-0.948C22.003,8.876,13.917,7.319,11.003,7.054z M11.846,12.875 c-0.647,0-1.312,0.045-1.975,0.133C9.374,13.075,9.003,13.499,9.003,14v1.586L4.417,11l4.586-4.586V8c0,0.552,0.471,1,1.022,1 c0.91,0,8.114,0.201,9.679,6.425C18.05,14.207,15.423,12.875,11.846,12.875z"
     id="path69" />
  <path
     style="fill:#ffffff;stroke-width:0.02996255"
     d="M 9.7779892,18.961067 C 9.5053699,18.890219 9.4447835,18.832668 5.7880923,15.171108 1.7497529,11.127391 2.0289445,11.436715 2.0261505,11.003143 2.0233167,10.563386 1.7486671,10.86752 5.8337684,6.7867601 9.9119398,2.7129228 9.556681,3.031525 10.019476,3.0329454 c 0.273241,8.386e-4 0.43819,0.060282 0.626797,0.2258817 0.146694,0.128799 0.239933,0.2777064 0.299516,0.4783442 0.0407,0.1370477 0.04747,0.3853838 0.04747,1.7410665 v 1.581219 l 0.09738,0.013815 c 0.05356,0.0076 0.362389,0.049232 0.686291,0.092519 2.502634,0.3344575 4.820985,1.2398112 6.482248,2.5314235 1.617753,1.2577837 2.75388,2.9605087 3.299712,4.9453127 0.269816,0.981131 0.405438,1.972638 0.41191,3.011406 l 0.0037,0.599251 -0.08442,0.164794 c -0.111073,0.216827 -0.256858,0.363189 -0.464954,0.466796 -0.142423,0.07091 -0.20838,0.08475 -0.40997,0.08601 -0.212893,0.0013 -0.263117,-0.0098 -0.441191,-0.09738 -0.16474,-0.08107 -0.24094,-0.145853 -0.422886,-0.359551 -1.424821,-1.67347 -3.665285,-2.955538 -5.98025,-3.422098 -0.842208,-0.16974 -1.915078,-0.258372 -2.70474,-0.223446 l -0.470955,0.02083 -0.0084,1.667721 -0.0084,1.667722 -0.09864,0.20031 c -0.164454,0.333973 -0.450157,0.526927 -0.811846,0.548296 -0.1089721,0.0064 -0.2393844,9.82e-4 -0.2898048,-0.01212 z M 9.0960081,13.617461 c 0.095862,-0.207502 0.3106589,-0.422082 0.5119526,-0.511436 0.4553193,-0.202114 2.5836423,-0.272547 3.8272453,-0.126655 2.136983,0.250699 4.16869,1.013021 5.927504,2.224075 0.17848,0.122894 0.331315,0.216637 0.339635,0.208317 0.0083,-0.0083 -0.02036,-0.134202 -0.06373,-0.279737 C 19.250656,13.830301 18.617569,12.739309 17.737767,11.856323 16.566848,10.681164 15.026393,9.8643092 13.075655,9.3841528 12.173507,9.1620971 11.483574,9.0621729 10.407524,8.9977219 9.8274469,8.9629777 9.7321294,8.9499805 9.6,8.8876114 9.4107095,8.7982604 9.200267,8.589191 9.1046613,8.3955056 9.0315928,8.2474781 9.0305987,8.2346487 9.0212336,7.3189142 L 9.0117552,6.3921357 6.7066265,8.6971188 4.4014976,11.002102 6.7011233,13.30194 9.0007491,15.601779 9.0157303,14.68029 c 0.014082,-0.866206 0.018899,-0.929968 0.080278,-1.062829 z"
     id="path79"
     inkscape:connector-curvature="0" />
</svg>
