<?xml version="1.0" encoding="UTF-8" standalone="no"?>
<svg
   xmlns:dc="http://purl.org/dc/elements/1.1/"
   xmlns:cc="http://creativecommons.org/ns#"
   xmlns:rdf="http://www.w3.org/1999/02/22-rdf-syntax-ns#"
   xmlns:svg="http://www.w3.org/2000/svg"
   xmlns="http://www.w3.org/2000/svg"
   xmlns:sodipodi="http://sodipodi.sourceforge.net/DTD/sodipodi-0.dtd"
   xmlns:inkscape="http://www.inkscape.org/namespaces/inkscape"
   width="24"
   height="24"
   viewBox="0 0 24 24"
   version="1.1"
   id="svg319"
   sodipodi:docname="new_stock.svg"
   inkscape:version="0.92.5 (2060ec1f9f, 2020-04-08)">
  <metadata
     id="metadata325">
    <rdf:RDF>
      <cc:Work
         rdf:about="">
        <dc:format>image/svg+xml</dc:format>
        <dc:type
           rdf:resource="http://purl.org/dc/dcmitype/StillImage" />
      </cc:Work>
    </rdf:RDF>
  </metadata>
  <defs
     id="defs323" />
  <sodipodi:namedview
     pagecolor="#ffffff"
     bordercolor="#666666"
     borderopacity="1"
     objecttolerance="10"
     gridtolerance="10"
     guidetolerance="10"
     inkscape:pageopacity="0"
     inkscape:pageshadow="2"
     inkscape:window-width="640"
     inkscape:window-height="480"
     id="namedview321"
     showgrid="false"
     inkscape:zoom="9.8333333"
     inkscape:cx="12"
     inkscape:cy="12"
     inkscape:window-x="0"
     inkscape:window-y="0"
     inkscape:window-maximized="0"
     inkscape:current-layer="svg319" />
  <path
     d="M20,2H8C6.897,2,6,2.897,6,4v12c0,1.103,0.897,2,2,2h12c1.103,0,2-0.897,2-2V4C22,2.897,21.103,2,20,2z M8,16V4h12 l0.002,12H8z"
     id="path315" />
  <path
     d="M4 8H2v12c0 1.103.897 2 2 2h12v-2H4V8zM15 6L13 6 13 9 10 9 10 11 13 11 13 14 15 14 15 11 18 11 18 9 15 9z"
     id="path317" />
  <path
     style="fill:#ffffff;stroke-width:0.10169491"
     d="M 3.1423729,21.735742 C 2.6939674,21.498817 2.4826499,21.289008 2.2671448,20.866763 2.0844074,20.508721 2.0745763,20.172551 2.0745763,14.282017 V 8.0745763 h 0.9144414 0.9144412 l 0.026237,5.9745767 0.026237,5.974576 5.9745763,0.02624 5.9745768,0.02624 v 0.914441 0.914442 l -6.2288141,-0.0041 c -5.4840744,-0.0036 -6.2652906,-0.02335 -6.5338983,-0.165275 z"
     id="path335"
     inkscape:connector-curvature="0" />
  <path
     style="fill:#ffffff;stroke-width:0.10169491"
     d="M 7.2101695,17.747949 C 6.7173908,17.519095 6.4077957,17.197033 6.198074,16.695099 6.0616403,16.368567 6.0409754,15.474851 6.0429114,9.9846223 6.0450088,4.0365764 6.0566143,3.6260745 6.2334776,3.2440678 6.4526848,2.7706026 6.8860566,2.3365178 7.293061,2.1827409 7.4843659,2.1104608 9.7208652,2.0745763 14.0344,2.0745763 c 6.133513,0 6.473853,0.00959 6.832363,0.1925685 0.431599,0.2202792 0.639468,0.4334042 0.873516,0.8956016 0.146844,0.2899886 0.164806,1.0357696 0.164806,6.8430346 0,6.338136 -0.0057,6.528661 -0.205399,6.920191 -0.112969,0.221438 -0.395613,0.528513 -0.628097,0.682389 l -0.422698,0.279775 -6.515971,0.02436 c -6.1648241,0.02305 -6.5378923,0.01418 -6.9227505,-0.164551 z M 20.049959,9.9813559 20.023729,3.9559322 13.998305,3.929702 7.9728814,3.9034719 V 9.9551258 16.00678 h 6.0516536 6.051654 z"
     id="path337"
     inkscape:connector-curvature="0" />
  <path
     style="fill:#ffffff;stroke-width:0.10169491"
     d="M 13.057627,12.447458 V 10.922034 H 11.532203 10.00678 V 10.00678 9.0915254 h 1.525423 1.525424 V 7.5661017 6.040678 h 0.966102 0.966102 v 1.5254237 1.5254237 h 1.474576 1.474576 v 0.9152546 0.915254 h -1.474576 -1.474576 v 1.525424 1.525423 h -0.966102 -0.966102 z"
     id="path339"
     inkscape:connector-curvature="0" />
</svg>
