<?xml version="1.0" encoding="UTF-8" standalone="no"?>
<svg
   xmlns:osb="http://www.openswatchbook.org/uri/2009/osb"
   xmlns:dc="http://purl.org/dc/elements/1.1/"
   xmlns:cc="http://creativecommons.org/ns#"
   xmlns:rdf="http://www.w3.org/1999/02/22-rdf-syntax-ns#"
   xmlns:svg="http://www.w3.org/2000/svg"
   xmlns="http://www.w3.org/2000/svg"
   xmlns:sodipodi="http://sodipodi.sourceforge.net/DTD/sodipodi-0.dtd"
   xmlns:inkscape="http://www.inkscape.org/namespaces/inkscape"
   width="24"
   height="24"
   viewBox="0 0 24 24"
   version="1.1"
   id="svg48"
   sodipodi:docname="plus-white.svg"
   inkscape:version="0.92.5 (2060ec1f9f, 2020-04-08)">
  <metadata
     id="metadata54">
    <rdf:RDF>
      <cc:Work
         rdf:about="">
        <dc:format>image/svg+xml</dc:format>
        <dc:type
           rdf:resource="http://purl.org/dc/dcmitype/StillImage" />
        <dc:title></dc:title>
      </cc:Work>
    </rdf:RDF>
  </metadata>
  <defs
     id="defs52">
    <linearGradient
       id="linearGradient4622"
       osb:paint="solid">
      <stop
         style="stop-color:#ffffff;stop-opacity:1;"
         offset="0"
         id="stop4620" />
    </linearGradient>
  </defs>
  <sodipodi:namedview
     pagecolor="#ffffff"
     bordercolor="#666666"
     borderopacity="1"
     objecttolerance="10"
     gridtolerance="10"
     guidetolerance="10"
     inkscape:pageopacity="0"
     inkscape:pageshadow="2"
     inkscape:window-width="1080"
     inkscape:window-height="1896"
     id="namedview50"
     showgrid="false"
     inkscape:zoom="13.729657"
     inkscape:cx="11.090128"
     inkscape:cy="20.437408"
     inkscape:window-x="0"
     inkscape:window-y="0"
     inkscape:window-maximized="1"
     inkscape:current-layer="svg48" />
  <path
     d="M19 11L13 11 13 5 11 5 11 11 5 11 5 13 11 13 11 19 13 19 13 13 19 13z"
     id="path46"
     style="fill:#000000;fill-opacity:1;opacity:1" />
  <path
     style="fill:#990d0d;stroke-width:0.02575107;fill-opacity:0;opacity:1"
     d="m 11.006009,15.993991 v -3 h -3.0000004 -3 v -0.991416 -0.991416 h 3 3.0000004 v -3.0000002 -3 h 0.991416 0.991416 v 3 3.0000002 h 3 3 v 0.991416 0.991416 h -3 -3 v 3 3 h -0.991416 -0.991416 z"
     id="path56"
     inkscape:connector-curvature="0" />
  <path
     style="opacity:1;fill:#990d0d;fill-opacity:0;stroke-width:0.02575107"
     d="m 11.006009,15.993991 v -3 h -3.0000004 -3 v -0.991416 -0.991416 h 3 3.0000004 v -3.0000002 -3 h 0.991416 0.991416 v 3 3.0000002 h 3 3 v 0.991416 0.991416 h -3 -3 v 3 3 h -0.991416 -0.991416 z"
     id="path4570"
     inkscape:connector-curvature="0" />
  <path
     style="opacity:1;fill:#990d0d;fill-opacity:0;stroke-width:0.02575107"
     d="M 11.005859 5.0117188 L 11.005859 8.0117188 L 11.005859 11.011719 L 8.0058594 11.011719 L 5.0058594 11.011719 L 5.0058594 12.001953 L 5.0058594 12.994141 L 8.0058594 12.994141 L 11.005859 12.994141 L 11.005859 15.994141 L 11.005859 18.994141 L 11.998047 18.994141 L 12.988281 18.994141 L 12.988281 15.994141 L 12.988281 12.994141 L 15.988281 12.994141 L 18.988281 12.994141 L 18.988281 12.001953 L 18.988281 11.011719 L 15.988281 11.011719 L 12.988281 11.011719 L 12.988281 8.0117188 L 12.988281 5.0117188 L 11.998047 5.0117188 L 11.005859 5.0117188 z "
     id="path4572" />
  <path
     style="opacity:1;fill:#990d0d;fill-opacity:0;stroke-width:0.02575107"
     d="m 11.006009,15.993991 v -3 h -3.0000004 -3 v -0.991416 -0.991416 h 3 3.0000004 v -3.0000002 -3 h 0.991416 0.991416 v 3 3.0000002 h 3 3 v 0.991416 0.991416 h -3 -3 v 3 3 h -0.991416 -0.991416 z"
     id="path4586"
     inkscape:connector-curvature="0" />
  <path
     style="opacity:1;fill:#990d0d;fill-opacity:0;stroke-width:0.02575107"
     d="m 11.006009,15.993991 v -3 h -3.0000004 -3 v -0.991416 -0.991416 h 3 3.0000004 v -3.0000002 -3 h 0.991416 0.991416 v 3 3.0000002 h 3 3 v 0.991416 0.991416 h -3 -3 v 3 3 h -0.991416 -0.991416 z"
     id="path4588"
     inkscape:connector-curvature="0" />
  <path
     style="opacity:1;fill:#990d0d;fill-opacity:0;stroke-width:0.02575107"
     d="m 11.006009,15.993991 v -3 h -3.0000004 -3 v -0.991416 -0.991416 h 3 3.0000004 v -3.0000002 -3 h 0.991416 0.991416 v 3 3.0000002 h 3 3 v 0.991416 0.991416 h -3 -3 v 3 3 h -0.991416 -0.991416 z"
     id="path4590"
     inkscape:connector-curvature="0" />
  <path
     style="opacity:1;fill:#990d0d;fill-opacity:0;stroke-width:0.02575107"
     d="m 11.006009,15.993991 v -3 h -3.0000004 -3 v -0.991416 -0.991416 h 3 3.0000004 v -3.0000002 -3 h 0.991416 0.991416 v 3 3.0000002 h 3 3 v 0.991416 0.991416 h -3 -3 v 3 3 h -0.991416 -0.991416 z"
     id="path4592"
     inkscape:connector-curvature="0" />
  <path
     style="opacity:1;fill:#990d0d;fill-opacity:0;stroke-width:0.02575107"
     d="m 11.006009,15.993991 v -3 h -3.0000004 -3 v -0.991416 -0.991416 h 3 3.0000004 v -3.0000002 -3 h 0.991416 0.991416 v 3 3.0000002 h 3 3 v 0.991416 0.991416 h -3 -3 v 3 3 h -0.991416 -0.991416 z"
     id="path4594"
     inkscape:connector-curvature="0" />
  <path
     style="opacity:1;fill:#990d0d;fill-opacity:0;stroke-width:0.02575107"
     d="m 11.006009,15.993991 v -3 h -3.0000004 -3 v -0.991416 -0.991416 h 3 3.0000004 v -3.0000002 -3 h 0.991416 0.991416 v 3 3.0000002 h 3 3 v 0.991416 0.991416 h -3 -3 v 3 3 h -0.991416 -0.991416 z"
     id="path4596"
     inkscape:connector-curvature="0" />
  <path
     style="opacity:1;fill:#990d0d;fill-opacity:0;stroke-width:0.07283504"
     d="M 11.03186,15.988249 V 13.002012 H 8.0456231 5.0593868 V 12.01874 11.035467 H 8.0456231 11.03186 V 8.0492302 5.0629939 h 0.983272 0.983273 v 2.9862363 2.9862368 h 2.986237 2.986236 v 0.983273 0.983272 h -2.986236 -2.986237 v 2.986237 2.986236 H 12.015132 11.03186 Z"
     id="path4598"
     inkscape:connector-curvature="0" />
  <path
     style="opacity:1;fill:#990d0d;fill-opacity:0;stroke-width:0.07283504"
     d="M 11.03186,15.988249 V 13.002012 H 8.0456231 5.0593868 V 12.01874 11.035467 H 8.0456231 11.03186 V 8.0492302 5.0629939 h 0.983272 0.983273 v 2.9862363 2.9862368 h 2.986237 2.986236 v 0.983273 0.983272 h -2.986236 -2.986237 v 2.986237 2.986236 H 12.015132 11.03186 Z"
     id="path4600"
     inkscape:connector-curvature="0" />
  <path
     style="opacity:1;fill:#990d0d;fill-opacity:0;stroke-width:0.07283504"
     d="M 11.03186,15.988249 V 13.002012 H 8.0456231 5.0593868 V 12.01874 11.035467 H 8.0456231 11.03186 V 8.0492302 5.0629939 h 0.983272 0.983273 v 2.9862363 2.9862368 h 2.986237 2.986236 v 0.983273 0.983272 h -2.986236 -2.986237 v 2.986237 2.986236 H 12.015132 11.03186 Z"
     id="path4602"
     inkscape:connector-curvature="0" />
  <path
     style="opacity:1;fill:#990d0d;fill-opacity:0;stroke-width:0.07283504"
     d="M 11.03186,15.988249 V 13.002012 H 8.0456231 5.0593868 V 12.01874 11.035467 H 8.0456231 11.03186 V 8.0492302 5.0629939 h 0.983272 0.983273 v 2.9862363 2.9862368 h 2.986237 2.986236 v 0.983273 0.983272 h -2.986236 -2.986237 v 2.986237 2.986236 H 12.015132 11.03186 Z"
     id="path4604"
     inkscape:connector-curvature="0" />
  <path
     style="opacity:1;fill:#990d0d;fill-opacity:0;stroke-width:0.07283504"
     d="M 11.03186,15.988249 V 13.002012 H 8.0456231 5.0593868 V 12.01874 11.035467 H 8.0456231 11.03186 V 8.0492302 5.0629939 h 0.983272 0.983273 v 2.9862363 2.9862368 h 2.986237 2.986236 v 0.983273 0.983272 h -2.986236 -2.986237 v 2.986237 2.986236 H 12.015132 11.03186 Z"
     id="path4606"
     inkscape:connector-curvature="0" />
  <path
     style="opacity:1;fill:#ffffff;fill-opacity:0;stroke-width:0.07283504"
     d="M 11.03186,15.988249 V 13.002012 H 8.0456231 5.0593868 V 12.01874 11.035467 H 8.0456231 11.03186 V 8.0492302 5.0629939 h 0.983272 0.983273 v 2.9862363 2.9862368 h 2.986237 2.986236 v 0.983273 0.983272 h -2.986236 -2.986237 v 2.986237 2.986236 H 12.015132 11.03186 Z"
     id="path4608"
     inkscape:connector-curvature="0" />
  <path
     style="opacity:1;fill:#ffffff;fill-opacity:0;stroke-width:0.07283504"
     d="M 11.03186,15.988249 V 13.002012 H 8.0456231 5.0593868 V 12.01874 11.035467 H 8.0456231 11.03186 V 8.0492302 5.0629939 h 0.983272 0.983273 v 2.9862363 2.9862368 h 2.986237 2.986236 v 0.983273 0.983272 h -2.986236 -2.986237 v 2.986237 2.986236 H 12.015132 11.03186 Z"
     id="path4616"
     inkscape:connector-curvature="0" />
  <path
     style="opacity:1;fill:#ffffff;fill-opacity:1;stroke-width:0.07283504"
     d="M 11.03186,15.988249 V 13.002012 H 8.0456231 5.0593868 V 12.01874 11.035467 H 8.0456231 11.03186 V 8.0492302 5.0629939 h 0.983272 0.983273 v 2.9862363 2.9862368 h 2.986237 2.986236 v 0.983273 0.983272 h -2.986236 -2.986237 v 2.986237 2.986236 H 12.015132 11.03186 Z"
     id="path4618"
     inkscape:connector-curvature="0" />
</svg>
