<?xml version="1.0" encoding="UTF-8" standalone="no"?>
<svg
   xmlns:osb="http://www.openswatchbook.org/uri/2009/osb"
   xmlns:dc="http://purl.org/dc/elements/1.1/"
   xmlns:cc="http://creativecommons.org/ns#"
   xmlns:rdf="http://www.w3.org/1999/02/22-rdf-syntax-ns#"
   xmlns:svg="http://www.w3.org/2000/svg"
   xmlns="http://www.w3.org/2000/svg"
   xmlns:xlink="http://www.w3.org/1999/xlink"
   xmlns:sodipodi="http://sodipodi.sourceforge.net/DTD/sodipodi-0.dtd"
   xmlns:inkscape="http://www.inkscape.org/namespaces/inkscape"
   width="24"
   height="24"
   viewBox="0 0 24 24"
   version="1.1"
   id="svg1440"
   sodipodi:docname="check-white.svg"
   inkscape:version="0.92.5 (2060ec1f9f, 2020-04-08)">
  <metadata
     id="metadata1446">
    <rdf:RDF>
      <cc:Work
         rdf:about="">
        <dc:format>image/svg+xml</dc:format>
        <dc:type
           rdf:resource="http://purl.org/dc/dcmitype/StillImage" />
        <dc:title></dc:title>
      </cc:Work>
    </rdf:RDF>
  </metadata>
  <defs
     id="defs1444">
    <linearGradient
       id="linearGradient1454"
       osb:paint="solid">
      <stop
         style="stop-color:#ffffff;stop-opacity:1;"
         offset="0"
         id="stop1452" />
    </linearGradient>
    <linearGradient
       inkscape:collect="always"
       xlink:href="#linearGradient1454"
       id="linearGradient1456"
       x1="5.3095159"
       y1="12.852495"
       x2="19.69127"
       y2="12.852495"
       gradientUnits="userSpaceOnUse" />
  </defs>
  <sodipodi:namedview
     pagecolor="#ffffff"
     bordercolor="#666666"
     borderopacity="1"
     objecttolerance="10"
     gridtolerance="10"
     guidetolerance="10"
     inkscape:pageopacity="0"
     inkscape:pageshadow="2"
     inkscape:window-width="1920"
     inkscape:window-height="1029"
     id="namedview1442"
     showgrid="false"
     inkscape:zoom="33.375"
     inkscape:cx="12"
     inkscape:cy="12"
     inkscape:window-x="1080"
     inkscape:window-y="376"
     inkscape:window-maximized="1"
     inkscape:current-layer="svg1440" />
  <path
     d="M10 15.586L6.707 12.293 5.293 13.707 10 18.414 19.707 8.707 18.293 7.293z"
     id="path1438" />
  <path
     style="opacity:1;fill:#ffffff;fill-opacity:0;stroke-width:0.02996255"
     d="m 7.6464462,16.050941 -2.3369303,-2.337075 0.6965421,-0.696542 0.6965421,-0.696542 1.6479818,1.647777 1.6479817,1.647778 4.1497614,-4.149681 4.149762,-4.149681 0.696592,0.6965916 0.696591,0.6965915 -4.838858,4.8389279 c -2.661373,2.661411 -4.845649,4.838929 -4.8539473,4.838929 -0.0083,0 -1.0667068,-1.051684 -2.3520185,-2.337074 z"
     id="path1448"
     inkscape:connector-curvature="0" />
  <path
     style="opacity:1;fill:url(#linearGradient1456);fill-opacity:1;stroke-width:0.02996255"
     d="m 7.6464462,16.050941 -2.3369303,-2.337075 0.6965421,-0.696542 0.6965421,-0.696542 1.6479818,1.647777 1.6479817,1.647778 4.1497614,-4.149681 4.149762,-4.149681 0.696592,0.6965916 0.696591,0.6965915 -4.838858,4.8389279 c -2.661373,2.661411 -4.845649,4.838929 -4.8539473,4.838929 -0.0083,0 -1.0667068,-1.051684 -2.3520185,-2.337074 z"
     id="path1450"
     inkscape:connector-curvature="0" />
</svg>
